:SAMPLES-PER-SECOND 30
:FULLY-SPECIFIED
:DEGREES
17
root  72.0988 40.1352 -3.08917 -146.89 -84.2581 144.39
RightUpLeg  0.2499 -11.4387 -9.6381
RightLeg  11.3675 1.60246 1.98535
RightFoot  -9.81949 -0.122205 4.21241
RightToes  0.000482159 0.542163 -0.142577
Spine  6.37128 0.306507 0.92196
Spine1  4.05499 1.30924 -4.06363
HEad  -3.59617 -3.5469 1.64709
LeftShoulder1  2.26126 -5.13233 -19.6494
LeftArm  -22.952 14.3274 -4.80421
LeftForeArm  11.1638 -4.15332 0.789926
LeftHand  -0.25398 0.0180481 5.50724
RightShoulder  0.785982 0.271133 13.9081
RightArm  -32.6324 -11.2957 8.54721
RightForeArm  -0.683582 10.4799 1.05939
RightHand  -3.67777 12.7336 -23.6959
LeftUpLeg  0.729864 7.98084 3.22113
LeftLeg  7.44666 18.6514 -2.48836
LeftFoot  -6.69775 0.275287 -5.76453
LeftToes  1.06248e-005 4.65856e-005 -8.18499e-006
18
root  71.9471 40.0702 -3.00766 -145.92 -84.3691 143.595
RightUpLeg  0.413171 -11.8493 -10.1215
RightLeg  11.4678 2.17208 2.30436
RightFoot  -10.6288 -0.109293 5.8427
RightToes  0.000482159 0.542163 -0.142577
Spine  6.83128 -0.0257992 1.37457
Spine1  3.39008 1.04803 -4.41122
HEad  -2.02807 -5.46025 1.80099
LeftShoulder1  2.35056 -5.12929 -20.7624
LeftArm  -23.3174 14.9546 -4.52079
LeftForeArm  11.666 -4.86622 0.924216
LeftHand  -0.25398 0.0180481 5.50724
RightShoulder  0.862344 0.487736 14.7659
RightArm  -33.5219 -12.4401 9.72705
RightForeArm  -1.82101 13.4383 1.9772
RightHand  -3.9978 13.4573 -24.7229
LeftUpLeg  -0.234207 12.2332 3.28641
LeftLeg  10.3451 17.1924 -1.07909
LeftFoot  -9.06941 0.165298 -5.47488
LeftToes  1.06248e-005 4.65856e-005 -8.18499e-006
19
root  71.7648 40.01 -2.89683 -146.337 -84.6434 144.208
RightUpLeg  0.517385 -12.1689 -10.346
RightLeg  11.6665 2.31729 2.57109
RightFoot  -11.048 -0.0913915 6.20845
RightToes  0.000482159 0.542163 -0.142577
Spine  7.26861 -0.245295 2.03159
Spine1  2.89214 0.933018 -4.77338
HEad  -0.988054 -7.13671 2.26633
LeftShoulder1  2.24882 -4.65219 -21.1188
LeftArm  -23.8309 14.7588 -5.62187
LeftForeArm  12.585 -4.92944 1.05364
LeftHand  -0.25398 0.0180481 5.50724
RightShoulder  0.984657 0.796768 16.1778
RightArm  -34.0695 -14.2626 10.8843
RightForeArm  -0.788013 16.8977 3.11423
RightHand  -4.29526 14.4725 -25.1826
LeftUpLeg  -1.44191 18.1886 3.22965
LeftLeg  13.5656 13.6115 0.968358
LeftFoot  -11.088 0.0755628 -4.51007
LeftToes  1.06248e-005 4.65856e-005 -8.18499e-006
20
root  71.5364 39.9596 -2.74808 -147.358 -84.8086 145.302
RightUpLeg  0.668724 -12.3195 -10.5021
RightLeg  11.9745 2.29566 2.64575
RightFoot  -11.2315 -0.0814834 5.50992
RightToes  0.000482159 0.542163 -0.142577
Spine  7.51521 -0.245972 2.41252
Spine1  2.99323 0.972211 -4.70077
HEad  -0.970642 -8.42037 2.85785
LeftShoulder1  2.26748 -4.50355 -21.8969
LeftArm  -23.7556 14.3453 -6.74704
LeftForeArm  12.8952 -4.45473 1.01416
LeftHand  -0.25398 0.0180481 5.50724
RightShoulder  1.14892 1.20185 17.8329
RightArm  -33.6997 -16.4087 12.2206
RightForeArm  0.499723 20.5628 4.25009
RightHand  -4.42379 14.8781 -25.4039
LeftUpLeg  -2.05804 20.8065 2.98908
LeftLeg  15.3697 10.1243 2.06261
LeftFoot  -12.1809 0.0405986 -4.34941
LeftToes  1.06248e-005 4.65856e-005 -8.18499e-006
21
root  71.2538 39.9217 -2.55111 -147.995 -84.8512 145.906
RightUpLeg  1.06493 -12.4236 -10.8491
RightLeg  12.082 2.49023 2.64665
RightFoot  -11.2203 -0.0817885 5.2403
RightToes  0.000482159 0.542163 -0.142577
Spine  7.69865 -0.174234 2.37436
Spine1  3.40272 0.963917 -4.15125
HEad  -1.28804 -9.63807 3.32058
LeftShoulder1  2.52403 -4.90185 -23.7061
LeftArm  -23.0761 14.1089 -7.24553
LeftForeArm  12.637 -3.5192 0.881593
LeftHand  -0.25398 0.0180481 5.50724
RightShoulder  1.34602 1.67809 19.5181
RightArm  -32.4537 -18.3822 13.9648
RightForeArm  0.772854 23.8873 5.07954
RightHand  -4.43434 14.658 -25.7266
LeftUpLeg  -1.71833 18.8092 2.74264
LeftLeg  15.2385 8.4766 1.71949
LeftFoot  -12.0506 0.0424563 -4.87489
LeftToes  1.06248e-005 4.65856e-005 -8.18499e-006
22
root  70.9291 39.889 -2.30077 -148.568 -84.9425 146.462
RightUpLeg  1.50487 -12.5562 -11.2454
RightLeg  12.1771 2.61189 2.48266
RightFoot  -11.1219 -0.0862099 5.57292
RightToes  0.000482159 0.542163 -0.142577
Spine  8.08511 -0.152591 2.19341
Spine1  3.52664 0.827845 -3.4443
HEad  -1.06655 -11.2724 3.68613
LeftShoulder1  2.84184 -5.36018 -25.848
LeftArm  -22.5249 13.9526 -8.05808
LeftForeArm  12.347 -2.46716 0.805971
LeftHand  -0.25398 0.0180481 5.50724
RightShoulder  1.57188 2.17639 21.3374
RightArm  -30.9563 -20.0617 15.9228
RightForeArm  1.25657 26.3267 5.5918
RightHand  -4.34576 14.3009 -25.6707
LeftUpLeg  -0.978263 15.2797 2.40915
LeftLeg  14.1344 8.77815 1.13327
LeftFoot  -11.108 0.0761852 -5.02114
LeftToes  1.06248e-005 4.65856e-005 -8.18499e-006
23
root  70.5873 39.8423 -2.01586 -148.491 -84.9977 146.483
RightUpLeg  1.48652 -12.5343 -11.4646
RightLeg  12.8624 2.36177 1.8336
RightFoot  -11.2816 -0.0797843 5.59522
RightToes  0.000482159 0.542163 -0.142577
Spine  8.67858 -0.0333677 1.71628
Spine1  3.29238 0.711521 -2.60594
HEad  -0.387378 -13.4558 4.13913
LeftShoulder1  3.16181 -5.79292 -27.8608
LeftArm  -22.3438 13.9285 -9.75348
LeftForeArm  11.8715 -2.10313 0.681065
LeftHand  -0.25398 0.0180481 5.50724
RightShoulder  1.81835 2.66834 23.238
RightArm  -29.4837 -21.682 17.9886
RightForeArm  2.89869 27.8071 5.85046
RightHand  -4.09633 13.8336 -24.8276
LeftUpLeg  -0.423625 12.9404 1.89687
LeftLeg  13.4679 10.1647 0.963666
LeftFoot  -10.5198 0.0962095 -4.57817
LeftToes  1.06248e-005 4.65856e-005 -8.18499e-006
24
root  70.2587 39.7481 -1.72562 -147.104 -84.6844 145.259
RightUpLeg  0.527059 -11.4481 -11.5747
RightLeg  14.893 1.50028 0.674262
RightFoot  -11.83 -0.0537053 5.91425
RightToes  0.000482159 0.542163 -0.142577
Spine  9.32194 0.36973 0.620983
Spine1  3.15981 0.7817 -1.57224
HEad  0.0515855 -15.9452 4.75643
LeftShoulder1  3.66967 -6.5989 -30.2167
LeftArm  -22.1042 14.0632 -11.6165
LeftForeArm  11.2036 -2.82957 0.306192
LeftHand  -0.25398 0.0180481 5.50724
RightShoulder  2.0736 3.171 24.9295
RightArm  -28.2139 -23.2436 20.5356
RightForeArm  4.82285 28.444 5.89822
RightHand  -3.78722 13.0998 -23.9171
LeftUpLeg  -0.184016 12.2515 1.19763
LeftLeg  13.8229 11.2863 0.968664
LeftFoot  -11.117 0.0748808 -4.27611
LeftToes  1.06248e-005 4.65856e-005 -8.18499e-006
25
root  69.9645 39.6029 -1.44109 -146.256 -83.8986 144.454
RightUpLeg  -1.73679 -8.24718 -11.8099
RightLeg  19.2877 -1.13319 -0.72124
RightFoot  -11.979 -0.0407737 7.72555
RightToes  0.000482159 0.542163 -0.142577
Spine  10.1123 0.944959 -0.695681
Spine1  3.44773 1.04058 -0.796161
HEad  -0.0702054 -18.3449 5.52327
LeftShoulder1  4.43653 -7.80017 -33.1698
LeftArm  -21.669 13.7667 -13.0143
LeftForeArm  11.306 -3.85045 -0.195337
LeftHand  -0.25398 0.0180481 5.50724
RightShoulder  2.33421 3.69238 26.3608
RightArm  -27.3291 -24.2488 23.913
RightForeArm  6.2786 28.0769 5.73266
RightHand  -3.54933 12.2322 -23.5375
LeftUpLeg  0.0431566 12.0723 0.474531
LeftLeg  14.6743 11.989 0.791166
LeftFoot  -12.5683 0.0278747 -4.40243
LeftToes  1.06248e-005 4.65856e-005 -8.18499e-006
26
root  69.6888 39.4649 -1.1572 -147.416 -82.9755 145.405
RightUpLeg  -5.38956 -5.27655 -12.1422
RightLeg  26.5777 -4.77153 -2.84741
RightFoot  -10.2803 -0.160427 9.60861
RightToes  0.000482159 0.542163 -0.142577
Spine  11.2538 1.3516 -1.49812
Spine1  4.07003 1.30464 -0.76522
HEad  -0.544845 -20.2205 6.39942
LeftShoulder1  5.28122 -8.98485 -36.1843
LeftArm  -21.3008 12.41 -14.2318
LeftForeArm  12.7528 -4.1178 -0.562525
LeftHand  -0.25398 0.0180481 5.50724
RightShoulder  2.60416 4.2167 27.7012
RightArm  -26.6782 -24.3055 27.9763
RightForeArm  8.52179 26.6448 5.27965
RightHand  -3.18004 11.1776 -22.4565
LeftUpLeg  0.660834 11.8801 -0.0293365
LeftLeg  15.1964 12.6457 0.385216
LeftFoot  -13.968 -0.0224761 -4.63161
LeftToes  1.06248e-005 4.65856e-005 -8.18499e-006
27
root  69.3739 39.3892 -0.870799 -149.93 -82.4123 147.587
RightUpLeg  -9.79732 -4.68144 -12.0748
RightLeg  35.0959 -7.62196 -5.96308
RightFoot  -6.29889 -0.435399 9.11996
RightToes  0.000482159 0.542163 -0.142577
Spine  12.4512 1.30691 -1.53827
Spine1  4.9553 1.29458 -1.10413
HEad  -1.18183 -21.2407 7.23896
LeftShoulder1  6.03495 -9.92295 -38.7553
LeftArm  -20.9684 10.2151 -15.7387
LeftForeArm  14.9426 -3.80066 -0.857131
LeftHand  -0.25398 0.0180481 5.50724
RightShoulder  2.89216 4.78689 28.8898
RightArm  -25.9029 -23.7091 32.3372
RightForeArm  12.8876 24.7164 4.61468
RightHand  -2.46333 9.6223 -19.2857
LeftUpLeg  1.66485 11.9736 -0.201489
LeftLeg  15.2005 13.075 0.00512364
LeftFoot  -14.8999 -0.0585954 -4.75925
LeftToes  1.06248e-005 4.65856e-005 -8.18499e-006
